<?xml version="1.0" standalone="no"?><!DOCTYPE svg PUBLIC "-//W3C//DTD SVG 1.1//EN" "http://www.w3.org/Graphics/SVG/1.1/DTD/svg11.dtd"><svg t="1571824147523" class="icon" viewBox="0 0 1024 1024" version="1.1" xmlns="http://www.w3.org/2000/svg" p-id="3264" xmlns:xlink="http://www.w3.org/1999/xlink" width="200" height="200"><defs><style type="text/css"></style></defs><path d="M632.2 318.7H232.9l118.8-131c11.9-13.1 11.9-32.8 0-45.9-11.9-13.1-29.7-13.1-41.6 0L140.9 326.9c-5.9 6.6-8.9 14.7-8.9 22.9s3 16.4 8.9 22.9l167.7 185.1c11.9 13.1 29.7 13.1 41.6 0s11.9-32.8 0-45.9L234.4 384.2h397.8c111.3 0 200.4 98.3 200.4 221.1s-89.1 221.1-200.4 221.1H327.9c-16.3 0-29.7 14.7-29.7 32.8 0 18 13.4 32.8 29.7 32.8h304.3c144 0 259.8-127.8 259.8-286.6S776.2 318.7 632.2 318.7z" opacity=".45" p-id="3265"></path></svg>