<?xml version="1.0" standalone="no"?><!DOCTYPE svg PUBLIC "-//W3C//DTD SVG 1.1//EN" "http://www.w3.org/Graphics/SVG/1.1/DTD/svg11.dtd"><svg t="1571386138531" class="icon" viewBox="0 0 1024 1024" version="1.1" xmlns="http://www.w3.org/2000/svg" p-id="1859" xmlns:xlink="http://www.w3.org/1999/xlink" width="200" height="200"><defs><style type="text/css"></style></defs><path d="M194.5 927.5c-53.1 0-96.3-43.4-96.3-96.8V194.4c0-53.4 43.2-96.8 96.3-96.8h423.7c13.5 0 24.5 11 24.5 24.6s-11 24.6-24.5 24.6H194.5c-26.1 0-47.4 21.4-47.4 47.6v636.3c0 26.3 21.2 47.6 47.4 47.6h635.1c26.1 0 47.4-21.4 47.4-47.6V373.3c0-13.6 11-24.6 24.5-24.6s24.5 11 24.5 24.6v457.4c0 53.4-43.2 96.8-96.3 96.8H194.5z" fill="#0097E0" p-id="1860"></path><path d="M618.2 98.7c13 0 23.5 10.6 23.5 23.6 0 13-10.5 23.6-23.5 23.6H194.5c-26.7 0-48.4 21.8-48.4 48.6v636.3c0 26.8 21.7 48.6 48.4 48.6h635.1c26.7 0 48.4-21.8 48.4-48.6V373.3c0-13 10.5-23.6 23.5-23.6s23.5 10.6 23.5 23.6v457.4c0 52.8-42.7 95.8-95.3 95.8H194.5c-52.5 0-95.3-43-95.3-95.8V194.4c0-52.8 42.7-95.8 95.3-95.8h423.7m0-1.9H194.5c-53.6 0-97.3 43.9-97.3 97.8v636.3c0 53.9 43.6 97.8 97.3 97.8h635.1c53.6 0 97.3-43.9 97.3-97.8V373.3c0-14.1-11.4-25.6-25.5-25.6-14 0-25.5 11.5-25.5 25.6v457.4c0 25.7-20.8 46.6-46.4 46.6h-635c-25.6 0-46.4-20.9-46.4-46.6V194.4c0-25.7 20.8-46.6 46.4-46.6h423.7c14 0 25.5-11.5 25.5-25.6-0.1-14.1-11.5-25.5-25.5-25.5z" fill="#0097E0" p-id="1861"></path><path d="M423 603.5c-6.4 0-12.8-2.4-17.6-7.3-9.8-9.7-9.8-25.6-0.1-35.4l456-458c9.7-9.8 25.6-9.8 35.4-0.1 9.8 9.7 9.8 25.6 0.1 35.4l-456 458c-5 4.9-11.4 7.4-17.8 7.4z" fill="#0097E0" p-id="1862"></path></svg>